<svg width="900" height="900" viewBox="0 0 900 900" fill="none" xmlns="http://www.w3.org/2000/svg">
<g clip-path="url(#clip0_13_2993)">
<path d="M404.483 496.716L411.796 489.78L427.508 479.618L426.677 488.756L425.601 500.594L416.775 500.007L412.897 506.319L404.483 496.716Z" fill="#005CFF" stroke="black" stroke-width="0.5"/>
<path d="M206.742 382.83L199.233 373.025L189.892 353.536L185.518 330.653L197.344 314.832L221.224 311.189L238.536 313.927L253.776 321.397L262.132 308.253L278.502 315.276L282.783 327.969L280.509 350.688L249.465 365.223L257.575 376.637L238.188 378.001L222.201 385.575L206.742 382.83Z" fill="#005CFF" stroke="black" stroke-width="0.5"/>
<path d="M162.015 465.555L163.468 475.094L175.659 472.877L181.696 465.243L185.943 466.98L196.85 478.193L204.598 490.614L205.658 503.096L203.691 511.521L205.489 517.887L206.837 528.839L213.342 533.936L220.605 550.286L220.252 556.536L207.156 557.769L189.683 544.075L167.835 529.397L165.672 519.97L154.995 507.587L152.446 492.241L145.784 482.128L147.807 468.608L143.735 460.729L146.945 457.412L162.015 465.555Z" fill="#005CFF" stroke="black" stroke-width="0.5"/>
<path d="M486.01 497.6L472.412 503.912L456.402 500.789L435.169 500.781L428.771 521.841L421.659 528.275L412.191 553.992L397.129 557.931L379.657 552.751L370.8 554.372L360.038 563.717L348.248 562.386L336.334 566.144L323.704 555.702L320.62 543.348L334.156 549.683L348.427 546.229L352.143 530.572L360.027 527.083L382.165 523.077L395.413 508.432L404.483 496.716L412.897 506.319L416.775 500.007L425.601 500.594L426.677 488.756L427.508 479.618L441.73 466.701L451.044 452.165L458.516 452.104L468.004 461.515L468.848 469.595L481.012 474.773L496.419 480.358L495.104 487.626L482.712 488.546L486.01 497.6Z" fill="#005CFF" stroke="black" stroke-width="0.5"/>
<path d="M524.745 770.646L516.977 771.004L492.465 757.861L509.687 754.178L519.391 759.884L525.851 765.58L524.745 770.646Z" fill="#005CFF" stroke="black" stroke-width="0.5"/>
<path d="M593.455 768.776L577.646 772.907L575.43 770.654L577.093 764.273L585.034 752.842L603.294 745.409L605.166 749.098L605.507 754.774L593.455 768.776Z" fill="#005CFF" stroke="black" stroke-width="0.5"/>
<path d="M472.744 730.517L479.404 735.496L490.815 733.971L495.396 741.913L474.044 745.668L461.251 748.18L451.322 748.031L457.668 737.267L467.794 737.12L472.744 730.517Z" fill="#005CFF" stroke="black" stroke-width="0.5"/>
<path d="M565.153 730.49L562.447 740.866L534.697 746.174L510.132 743.869L510.068 737.037L524.735 733.154L536.307 738.753L548.602 737.331L565.153 730.49Z" fill="#005CFF" stroke="black" stroke-width="0.5"/>
<path d="M301.417 705.957L336.799 707.812L340.868 700.144L375.132 709.09L381.854 721.164L409.561 724.563L432.214 735.654L411.141 742.773L390.829 735.245L374.114 735.754L354.95 734.371L337.665 731.02L316.269 723.894L302.713 722.047L295.032 724.379L261.351 716.704L258.147 708.697L241.246 707.329L253.918 689.564L276.328 690.661L291.233 697.923L298.894 699.341L301.417 705.957Z" fill="#005CFF" stroke="black" stroke-width="0.5"/>
<path d="M783.475 695.482L773.973 708.144L772.175 694.145L775.454 687.468L779.319 681.192L783.519 686.623L783.475 695.482Z" fill="#005CFF" stroke="black" stroke-width="0.5"/>
<path d="M645.413 644.383L638.5 650.528L625.736 647.129L622.139 639.168L640.822 638.28L645.413 644.383Z" fill="#005CFF" stroke="black" stroke-width="0.5"/>
<path d="M704.922 637.622L711.635 651.778L696.042 644.147L680.615 642.598L670.188 643.821L657.412 643.168L661.789 632.995L684.6 632.227L704.922 637.622Z" fill="#005CFF" stroke="black" stroke-width="0.5"/>
<path d="M772.74 601.715L777.897 631.617L797.012 642.693L812.447 623.069L833.638 611.911L850.057 611.896L865.852 618.34L879.551 624.956L899.378 628.49L899.689 688.878L899.999 749.62L883.554 734.279L864.796 730.524L860.247 735.843L836.847 736.417L844.69 721.232L856.316 716.058L851.501 695.824L842.635 680.233L806.831 664.526L791.601 662.977L763.866 645.86L758.414 654.859L751.327 656.492L747.134 649.701L747.076 641.657L732.966 632.567L752.858 625.906L766.029 626.265L764.481 621.359L737.446 621.322L730.13 610.315L713.63 606.902L705.812 597.757L730.708 593.28L740.175 587.258L769.825 594.846L772.74 601.715Z" fill="#005CFF" stroke="black" stroke-width="0.5"/>
<path d="M608.314 554.192L593.475 572.524L579.595 576.077L561.82 572.463L531.045 573.386L514.909 576.046L512.283 590.032L528.813 606.465L538.785 598.094L573.225 591.806L571.707 600.316L563.66 597.632L555.642 608.461L539.384 615.626L556.861 639.33L553.487 645.687L570.092 667.069L569.933 679.253L560.074 684.711L552.832 678.183L561.755 663L543.631 670.177L539.037 665.046L541.432 657.891L528.117 647.031L529.487 628.999L517.17 634.622L518.732 656.207L519.483 682.736L507.771 685.431L499.836 679.982L505.131 662.911L502.272 645.037L494.506 644.901L488.77 632.224L496.402 620.112L499.032 605.435L508.315 577.579L512.188 569.963L527.887 556.237L542.312 561.694L565.597 564.258L586.835 563.483L605.091 550.062L608.314 554.192Z" fill="#005CFF" stroke="black" stroke-width="0.5"/>
<path d="M671.99 559.505L671.024 575.654L661.498 573.844L658.689 585.087L666.297 594.843L661.126 597.06L653.673 585.356L648.188 561.735L651.901 546.967L658.03 540.239L659.356 550.335L670.26 551.956L671.99 559.505Z" fill="#005CFF" stroke="black" stroke-width="0.5"/>
<path d="M472.294 546.654L492.999 563.758L471.116 565.939L464.956 578.536L465.756 595.281L447.996 607.921L447.511 626.333L440.388 654.635L437.669 648.048L416.687 656.381L409.371 645.061L396.203 644.015L386.993 638.085L365.036 644.741L358.298 635.784L346.2 636.802L330.974 634.667L328.15 609.866L318.934 604.728L310.068 588.92L307.497 572.755L309.648 555.632L320.621 543.348L323.704 555.702L336.334 566.144L348.248 562.386L360.038 563.717L370.8 554.372L379.657 552.751L397.129 557.931L412.191 553.992L421.66 528.275L428.771 521.841L435.169 500.781L456.403 500.789L472.412 503.912L461.907 520.634L475.483 538.148L472.294 546.654Z" fill="#005CFF" stroke="black" stroke-width="0.5"/>
<path d="M249.597 688.755L229.147 689.143L213.593 673.626L189.879 658.48L181.973 647.254L167.991 632.183L158.819 618.321L144.773 592.447L128.553 577.046L123.128 561.159L116.32 546.73L99.6654 535.087L90.0125 519.258L76.1069 508.889L56.8412 488.467L55.2188 479.022L67.1097 479.77L95.6998 483.356L112.032 501.488L126.315 514.046L136.5 521.746L153.998 541.63L172.773 541.92L188.291 554.583L198.977 570.057L213.042 578.498L205.64 593.585L216.226 600.002L222.86 600.476L225.99 613.369L232.425 623.687L245.985 625.322L254.97 637.03L250.331 660.06L249.597 688.755Z" fill="#005CFF" stroke="black" stroke-width="0.5"/>
<path d="M238.536 313.927L244.549 305.325L245.374 289.123L230.42 272.369L229.268 253.305L215.223 237.542L201.255 236.206L197.534 242.971L186.716 243.532L181.187 240.106L161.72 251.685L161.284 234.272L165.828 213.689L153.349 212.792L152.288 200.991L144.293 194.913L148.229 187.643L163.944 174.759L165.607 179.419L175.453 179.96L172.662 157.205L182.237 154.276L193.031 170.02L201.323 188.029L224.06 188.184L231.218 205.368L219.413 210.511L214.116 217.556L236.242 229.243L251.593 252.211L263.233 269.239L277.208 282.63L281.859 296.178L278.502 315.276L262.132 308.253L253.776 321.397L238.536 313.927Z" fill="#005CFF" stroke="black" stroke-width="0.5"/>
<path d="M133.717 199.468L122.938 207.993L109.899 208.872L101.479 230.021L93.687 233.561L102.612 250.61L114.333 264.733L121.897 277.452L115.138 294.142L108.761 297.68L113.17 307.271L125.488 322.416L127.598 333.026L127.309 341.837L134.529 359.087L124.386 376.661L115.437 395.968L113.657 382.027L119.334 367.605L113.124 356.439L114.625 335.814L107.127 325.974L101.108 303.159L97.7718 278.939L89.7835 262.978L77.6167 272.651L56.6284 286.358L46.2684 284.648L34.825 280.143L41.1909 256.24L37.337 238.076L22.8606 215.572L25.1188 208.504L14.3149 205.987L1.20712 189.92L0.000732422 173.987L6.44679 176.992L6.82473 162.731L15.9374 157.998L13.9828 149.506L18.1573 142.677L18.875 121.815L33.3095 126.421L41.545 109.711L42.4794 99.7831L52.6724 82.5993L52.1112 70.8055L76.021 56.4856L89.2194 60.2411L87.7048 47.4366L94.1794 43.6044L92.786 35.6668L103.588 34.1062L109.761 46.4313L117.822 51.4034L118.365 67.2915L117.622 84.2969L100.127 101.392L97.9131 125.478L117.408 122.124L121.812 140.687L133.508 144.576L128.131 161.194L141.846 168.672L149.844 172.331L163.391 166.541L163.944 174.759L148.229 187.643L144.293 194.913L133.717 199.468Z" fill="#005CFF" stroke="black" stroke-width="0.5"/>
<path d="M629.3 424.386L631.179 436.785L632.267 447.239L625.975 464.265L619.228 445.295L610.592 454.739L616.489 468.439L611.195 477.144L589.463 466.364L584.272 452.903L589.904 444.049L578.204 435.233L572.403 442.963L563.712 442.246L550.045 452.637L546.987 447.188L554.235 431.475L565.871 426.225L575.942 419.186L582.47 427.642L596.512 422.528L599.525 414.186L612.578 413.688L611.484 399.205L626.454 408.091L628.004 417.513L629.3 424.386Z" fill="#005CFF" stroke="black" stroke-width="0.5"/>
<path d="M585.079 389.478L578.444 395.647L572.658 407.488L566.858 413.03L555.485 400.086L559.29 395.066L563.926 389.808L565.963 378.141L576.148 377.036L573.173 389.691L586.843 371.536L585.079 389.478Z" fill="#005CFF" stroke="black" stroke-width="0.5"/>
<path d="M483.909 407.524L459.34 425.267L468.394 412.193L481.736 400.627L492.825 387.646L502.506 368.955L505.797 384.301L493.603 394.642L483.909 407.524Z" fill="#005CFF" stroke="black" stroke-width="0.5"/>
<path d="M546.315 359.106L557.401 364.948L569.155 364.921L568.797 372.794L560.244 380.785L548.514 386.43L547.863 377.693L549.174 368.085L546.315 359.106Z" fill="#005CFF" stroke="black" stroke-width="0.5"/>
<path d="M613.154 353.988L618.342 375.05L604.092 370.052L604.477 376.373L608.996 387.976L600.212 392.183L599.443 378.967L593.882 377.989L590.991 366.586L601.859 368.09L601.619 360.948L590.33 346.514L608.067 346.932L613.154 353.988Z" fill="#005CFF" stroke="black" stroke-width="0.5"/>
<path d="M539.737 336.816L534.839 353.177L526.929 343.736L517.501 329.282L533.324 329.98L539.737 336.816Z" fill="#005CFF" stroke="black" stroke-width="0.5"/>
<path d="M535.931 232.419L547.313 237.978L553.009 232.908L554.689 237.855L551.684 245.91L557.989 259.794L553.126 275.824L542.238 282.198L539.325 297.659L543.457 312.875L553.248 314.976L561.417 312.719L584.485 323.28L582.727 333.624L588.752 338.182L586.833 346.914L572.439 337.613L565.617 327.638L560.865 334.61L549.106 323.235L532.331 326.046L523.138 321.843L524.075 313.969L529.846 309.116L524.333 304.699L521.947 311.58L512.829 300.604L510.068 292.267L509.381 273.875L516.819 280.206L518.732 250.007L524.749 232.397L535.931 232.419Z" fill="#005CFF" stroke="black" stroke-width="0.5"/>
<path d="M189.892 353.536L173.311 344.849L157.514 345.202L160.222 330.302L143.957 330.414L142.497 351.259L132.527 378.809L126.522 395.403L127.79 408.968L139.821 409.555L147.316 426.619L150.633 442.764L160.94 453.429L172.127 455.592L181.696 465.243L175.659 472.877L163.468 475.094L162.014 465.555L146.945 457.412L143.735 460.729L136.438 453.59L133.279 444.369L123.465 433.844L114.518 424.991L111.486 435.961L107.984 425.594L109.999 413.933L115.437 395.968L124.386 376.661L134.529 359.087L127.309 341.837L127.598 333.026L125.488 322.416L113.17 307.271L108.761 297.68L115.138 294.142L121.897 277.452L114.332 264.733L102.611 250.61L93.6868 233.561L101.479 230.021L109.899 208.872L122.937 207.993L133.716 199.469L144.293 194.913L152.288 200.991L153.349 212.792L165.828 213.689L161.283 234.272L161.72 251.685L181.187 240.106L186.716 243.532L197.534 242.971L201.255 236.206L215.223 237.542L229.268 253.305L230.42 272.369L245.374 289.123L244.549 305.325L238.536 313.927L221.224 311.189L197.344 314.832L185.518 330.653L189.892 353.536Z" fill="#005CFF" stroke="black" stroke-width="0.5"/>
<path d="M603.294 745.409L605.465 740.999L621.364 736.798L634.248 736.166L640.02 733.834L647.014 736.149L640.219 741.211L620.972 749.398L605.507 754.774L605.166 749.098L603.294 745.409Z" fill="#005CFF" stroke="black" stroke-width="0.5"/>
<path d="M290.829 172.46L266.171 189.407L250.779 208.011L246.722 221.605L260.847 242.146L278.118 267.442L294.879 279.339L306.101 294.751L314.563 330.05L312.067 363.351L296.664 375.761L275.513 387.868L260.446 403.507L237.418 420.928L230.713 408.934L235.903 396.239L222.201 385.575L238.188 378.001L257.575 376.637L249.465 365.223L280.509 350.688L282.783 327.969L278.502 315.276L281.859 296.178L277.208 282.63L263.233 269.239L251.593 252.211L236.242 229.243L214.116 217.556L219.413 210.511L231.219 205.368L224.06 188.184L201.323 188.029L193.031 170.02L182.237 154.276L192.146 149.392L206.875 149.493L224.834 147.181L240.575 136.477L249.478 144.017L266.362 147.68L263.441 159.201L272.235 167.299L290.829 172.46Z" fill="#005CFF" stroke="black" stroke-width="0.5"/>
</g>
<defs>
<clipPath id="clip0_13_2993">
<rect width="900" height="900" fill="white"/>
</clipPath>
</defs>
</svg>
