<svg width="82" height="56" viewBox="0 0 82 56" fill="none" xmlns="http://www.w3.org/2000/svg">
<path d="M78.3916 29.7533L75.7669 32.7354L75.9847 33.7695L76.9155 38.1226L77.0635 38.8882L77.9162 43.0228L78.2437 43.3013L81.6014 46.1734L78.3318 50.9051L77.7866 50.8551C76.5781 50.7267 75.3697 50.6266 74.1612 50.5265C71.5365 50.3181 68.9019 50.1496 66.2655 50.0595C65.1568 50.0195 64.0365 49.9995 62.9278 49.9995L63.1056 51.5306L60.1335 55.8337L59.6282 55.8137C47.424 55.2966 35.16 55.2966 22.9574 55.8137L22.4521 55.8337L19.48 51.5306L19.6678 49.9411C18.4893 49.9411 17.3108 49.9611 16.1406 50.0012C12.3174 50.1396 8.42442 50.4081 4.60957 50.7967L4.07432 50.8568L0.804688 46.115L4.16242 43.243L4.52812 42.9344L5.60858 37.6673C5.94601 36.0078 6.28178 34.3582 6.62919 32.707L4.03443 29.7549L31.1872 22.3296L18.3597 22.5481C26.9784 16.7039 28.7603 16.4253 33.1586 15.1227L25.1649 15.2912C29.8607 10.7879 32.9209 10.2426 35.8132 9.65546C34.2873 9.3369 32.6034 9.20848 31.0875 8.88991C37.2793 2.70713 44.4403 1.1877 50.7701 0.869141C51.0577 2.77718 51.4533 4.99377 52.1365 6.72335C56.0693 7.56896 58.2485 8.32284 59.2891 11.1565L66.6395 15.6781L68.9085 16.0451L67.7799 21.8192L65.6106 22.4647L63.3716 24.3927L61.1525 21.8776C60.1418 21.5107 58.2502 20.3965 57.4673 20.3665C54.8426 20.2664 51.5032 20.645 49.7113 19.0739L49.6414 19.0139L52.3758 24.0041L78.3883 29.7483L78.3916 29.7533ZM45.1766 13.7601C52.3393 18.7503 52.8928 19.5242 60.8383 18.0932L60.9081 19.5142L63.4347 21.9293L64.9308 20.5867L66.337 20.0596L67.1698 17.4361L66.1093 17.2076L57.4706 12.9245L57.2828 11.9905C56.7775 9.53538 52.0617 8.59136 49.8825 8.1844C49.4071 7.07194 49.2392 6.68332 49.1893 5.27231C43.7105 5.59087 34.3903 11.0765 35.6287 18.5519L42.8196 18.1749C37.6583 21.9627 32.399 27.2598 22.7995 28.0554C17.9258 28.4523 13.0421 29.0894 5.92939 30.5105L7.43538 32.22C7.4653 32.2501 7.48525 32.2801 7.51517 32.3101L7.63485 32.4385L7.59496 32.607C7.23757 34.3566 6.87188 36.1062 6.5145 37.8457C6.13883 39.6754 5.77147 41.4934 5.39581 43.313L5.37586 43.4331L5.27613 43.5132C5.10824 43.6616 4.93869 43.8017 4.76083 43.9501L3.40444 45.1126L3.18668 45.3011C6.60426 45.2811 8.9314 45.6981 12.3889 45.4696L12.8144 45.4395L13.973 45.3695C14.9737 45.2994 15.9644 45.2494 16.965 45.191L20.3826 45.0026L21.1157 45.0126L21.0758 45.3995C20.8979 46.9206 20.7882 48.4017 20.6004 49.9511L20.5704 50.1596C24.7809 50.298 27.5053 51.0536 30.0801 50.9852L31.6942 50.9552C32.0698 50.9452 32.4472 50.9352 32.8228 50.9352C33.1985 50.9252 33.5758 50.9252 33.9515 50.9151L35.3877 50.9051H35.8431L36.5562 50.8951C37.1513 50.8951 37.7448 50.8851 38.3398 50.8851L39.8259 50.8751H42.0151V50.8851H45.2647L47.424 50.9151L48.8303 50.9352C53.2784 50.9952 57.6667 50.3781 61.9853 50.1996V49.9511C61.8755 49.0271 61.7675 48.1031 61.6678 47.1775L61.6478 47.0574L61.7077 46.9573C62.0252 46.4303 62.331 45.9032 62.6385 45.3762L62.7383 45.2077L65.7403 45.2177L68.97 45.4462C72.7732 45.7047 75.5874 45.4963 79.2826 45.4062L77.6386 44.0052C77.4707 43.8567 77.3012 43.7066 77.1233 43.5682L77.0834 43.5282L76.726 41.8386L76.1609 39.075L76.0129 38.3094L75.0821 33.9663C74.9824 33.5193 74.8843 33.0623 74.7945 32.6053L74.7048 32.1883H75.0123L76.4883 30.5088C63.2137 28.3923 49.5833 26.9612 38.0938 27.2882L45.0769 25.3101C47.3858 24.6546 48.3848 21.8609 47.4938 19.6343L45.1766 13.7601Z" fill="url(#paint0_linear_4103_3068)"/>
<path d="M73.9513 34.2164C73.7535 33.2924 73.5657 32.3784 73.3662 31.4527C71.1671 31.2643 68.9779 31.0758 66.7987 30.9157C67.0863 31.1742 67.3638 31.4327 67.6514 31.6812C67.9888 33.6793 68.3246 35.6674 68.672 37.6555C69.0194 39.6436 69.3652 41.6417 69.7026 43.6298C69.4849 43.8483 69.2571 44.0668 69.0494 44.2853C71.4064 44.4538 73.7851 44.6339 76.1721 44.8324C75.9842 43.9084 75.7964 42.9944 75.5969 42.0787C75.3892 42.2872 75.1714 42.5057 74.9836 42.7242C73.8749 42.6241 72.7744 42.5357 71.6857 42.4557L70.9127 38.281C71.9034 38.361 72.9041 38.4394 73.9048 38.5295L73.4892 36.5314C72.5085 36.4413 71.5278 36.3629 70.547 36.2829C70.3393 35.2488 70.1614 34.2047 69.9619 33.1723C70.9925 33.2524 72.0231 33.3408 73.062 33.4408L73.953 34.2164H73.9513ZM24.3433 33.1323C24.443 32.2183 24.5411 31.2943 24.6309 30.3786C22.9171 30.4487 21.2133 30.5271 19.4995 30.6171C19.6973 30.8456 19.9051 31.0741 20.1129 31.2926C19.925 32.6736 19.7472 34.0563 19.5577 35.4273C19.3699 36.8083 19.192 38.1909 19.0025 39.5719C18.7249 39.8204 18.4373 40.0689 18.1597 40.3174C19.9732 40.2274 21.7951 40.149 23.6086 40.0789C23.7083 39.1549 23.8064 38.2409 23.9061 37.3153C23.6485 37.5538 23.3908 37.7823 23.1431 38.0108C23.1232 38.0308 23.1033 38.0508 23.0833 38.0608C22.4982 38.0908 21.9147 38.1109 21.3296 38.1309C21.3895 37.5438 21.4676 36.9584 21.5274 36.3713C22.0427 36.3513 22.5481 36.3312 23.0634 36.3112C23.1332 35.6458 23.2113 34.9786 23.2811 34.3131C22.7758 34.3331 22.2804 34.3532 21.7751 34.3732C21.8549 33.7577 21.9231 33.1406 22.0028 32.5252C22.568 32.4951 23.1315 32.4751 23.6967 32.4551C23.9144 32.6836 24.1222 32.9121 24.34 33.1306L24.3433 33.1323ZM12.307 44.3036C12.3469 44.0551 12.3967 43.7966 12.4267 43.5481C12.6644 42.2055 12.9021 40.8545 13.1298 39.5135C13.3475 38.1626 13.5852 36.8199 13.803 35.469C14.3781 35.012 14.9616 34.555 15.5267 34.088C15.2591 35.7775 14.9716 37.4671 14.7039 39.1566C14.4363 40.8362 14.1687 42.5257 13.9011 44.2052C14.9017 44.1452 15.8924 44.0852 16.9031 44.0368C16.6754 43.8183 16.4576 43.5898 16.2299 43.3713C16.5374 41.2548 16.8532 39.1466 17.1607 37.0401C17.4782 34.9236 17.7841 32.8154 18.0916 30.7089C17.686 30.7289 17.2887 30.7489 16.9031 30.7789C16.0021 31.5445 15.1095 32.32 14.2186 33.0856L14.5759 30.939C14.1704 30.9691 13.7631 30.9991 13.3675 31.0291C12.4765 31.8047 11.5839 32.5802 10.683 33.3641C10.8209 32.6486 10.9606 31.9331 11.0886 31.2076C10.1577 31.2876 9.22684 31.376 8.30429 31.4561C8.49212 31.6746 8.67996 31.893 8.86945 32.1015C8.46386 34.0996 8.04664 36.0877 7.64105 38.0858C7.23547 40.0739 6.82822 42.062 6.41266 44.0601C6.11511 44.3187 5.8076 44.5772 5.51172 44.8357C6.50242 44.7456 7.51306 44.6672 8.53368 44.5872C8.81127 43.1161 9.09884 41.6451 9.37644 40.174C9.66401 38.7029 9.9416 37.2219 10.2292 35.7508L11.923 34.3498C11.6155 36.0394 11.2997 37.7189 10.9921 39.4085C10.6846 41.098 10.3788 42.7775 10.0812 44.4671C10.8143 44.4171 11.5673 44.367 12.3103 44.3086L12.307 44.3036ZM25.6897 40.0106C26.9081 39.9705 28.1266 39.9405 29.335 39.9105C29.1073 39.682 28.8796 39.4435 28.6419 39.215C28.7316 38.0525 28.8197 36.8983 28.9095 35.7458C28.9992 34.5833 29.0774 33.4292 29.1671 32.2667C29.4148 32.2667 29.6525 32.2566 29.8902 32.2466C30.108 32.4851 30.3257 32.7136 30.5634 32.9421C30.6232 32.0281 30.6831 31.1041 30.7413 30.1885C29.1073 30.2285 27.4816 30.2786 25.8576 30.3269C25.7778 31.2509 25.6897 32.1649 25.59 33.0906C25.8576 32.8421 26.1252 32.5936 26.3829 32.345C26.6305 32.345 26.8782 32.335 27.1059 32.325C27.0062 33.4875 26.9081 34.6417 26.7984 35.8042C26.6987 36.9567 26.6006 38.1109 26.4909 39.2734C26.2333 39.5119 25.9557 39.7604 25.688 40.0089L25.6897 40.0106ZM30.3756 39.8821C31.2183 39.8721 32.0395 39.8521 32.8822 39.8421C33.5654 39.2167 34.2386 38.5895 34.9035 37.9641C34.9733 38.5795 35.0515 39.1966 35.1313 39.8121C35.9341 39.8021 36.7353 39.7921 37.5482 39.7921C37.4285 39.682 37.3105 39.5736 37.2008 39.4535C36.9431 37.9924 36.6755 36.5314 36.4378 35.0703C36.2001 33.6093 35.9624 32.1482 35.7347 30.6772C35.9325 30.4887 36.1303 30.2902 36.3198 30.1001C35.0116 30.1101 33.715 30.1301 32.4068 30.1501C32.5947 30.3386 32.7725 30.5271 32.962 30.7172C32.6046 32.1883 32.229 33.6593 31.8716 35.1304C31.5059 36.6014 31.1385 38.0725 30.7529 39.5436C30.6332 39.6536 30.5052 39.772 30.3772 39.8821H30.3756ZM34.6442 35.9059C34.2187 36.3029 33.7915 36.7115 33.366 37.1185C33.6735 35.6274 33.961 34.1263 34.2669 32.6353C34.3866 33.7294 34.5245 34.8118 34.6426 35.9059H34.6442ZM38.5771 39.7821H41.4794C41.4794 38.6979 41.4694 37.6155 41.4594 36.5314C41.9049 36.1044 42.3504 35.6674 42.7876 35.2288C42.8075 36.7499 42.8274 38.271 42.8474 39.7804C43.8082 39.7904 44.7789 39.7904 45.7397 39.8004C45.4721 39.5619 45.2244 39.3234 44.9767 39.0849C44.9468 37.7039 44.9069 36.3212 44.867 34.9503C44.8371 33.5693 44.8072 32.1866 44.7673 30.8056C44.985 30.5771 45.2128 30.3386 45.4505 30.1001C44.5396 30.0901 43.627 30.0901 42.7261 30.0801C42.736 31.0041 42.756 31.9281 42.756 32.8537C42.3304 33.2907 41.885 33.7177 41.4578 34.1563C41.4478 32.8054 41.4478 31.4427 41.4378 30.0817H38.7034C38.9411 30.3203 39.1688 30.5588 39.3966 30.7973C39.3966 32.1682 39.3766 33.5609 39.3667 34.9319C39.3467 36.3129 39.3367 37.6956 39.3168 39.0665L38.5738 39.7821H38.5771ZM46.6406 39.8121C48.5323 39.8321 50.4239 39.8721 52.3172 39.9122C52.2075 38.2927 52.0994 36.6815 51.9798 35.062C51.8701 33.4425 51.752 31.8313 51.6324 30.2118C49.8488 30.1718 48.0768 30.1418 46.3032 30.1118C46.363 31.7313 46.4229 33.3524 46.4711 34.9619C46.5309 36.5814 46.5908 38.1926 46.639 39.8121H46.6406ZM48.4242 32.1883C48.8498 32.1983 49.2952 32.1983 49.7224 32.2083C49.7823 33.1423 49.8321 34.0863 49.8903 35.0203C49.9402 35.9443 50 36.8783 50.0482 37.814C49.6028 37.814 49.1373 37.804 48.7018 37.794C48.652 36.86 48.6021 35.926 48.5639 34.9903C48.514 34.0563 48.4741 33.1223 48.4259 32.1866L48.4242 32.1883ZM56.9133 40.0406C56.6357 39.7921 56.3681 39.5436 56.0905 39.305C56.0307 38.6196 55.9708 37.9341 55.9027 37.2469C56.3182 36.8299 56.7155 36.4113 57.1211 35.9843C57.2591 37.3453 57.3987 38.708 57.5367 40.0589C58.5074 40.099 59.4782 40.129 60.4489 40.169C60.1713 39.9305 59.8937 39.682 59.6161 39.4335C59.4964 38.3394 59.3684 37.2469 59.2504 36.1528C58.8249 35.7942 58.4176 35.4373 58.0021 35.0687C58.3395 34.7201 58.6653 34.3732 58.9928 34.0246C58.8548 32.8321 58.7252 31.6395 58.5872 30.447C56.5559 30.3569 54.5363 30.2886 52.525 30.2285C52.7826 30.477 53.0203 30.7155 53.278 30.964C53.3977 32.345 53.5057 33.7177 53.6154 35.0987C53.7251 36.4797 53.8332 37.8523 53.9529 39.2333C53.7152 39.4618 53.4874 39.7003 53.2697 39.9288C54.4881 39.9588 55.6965 39.9989 56.915 40.0389L56.9133 40.0406ZM56.8734 33.6093L55.6849 34.8619L55.4472 32.3567C55.8827 32.3767 56.3182 32.3867 56.7554 32.4068C56.7953 32.8137 56.8452 33.2123 56.8751 33.6093H56.8734ZM65.9875 33.5893C65.8396 32.6653 65.6999 31.7513 65.552 30.8256C63.928 30.7255 62.3123 30.6371 60.6883 30.5471C60.4905 30.924 60.2827 31.3026 60.0932 31.6796C60.7464 32.782 61.4313 33.8861 62.1245 34.9986C62.8076 36.1011 63.5108 37.2152 64.2239 38.3277C63.431 38.2877 62.648 38.2476 61.8568 38.2076C61.5693 37.9591 61.3016 37.7106 61.024 37.4521C61.1338 38.376 61.2518 39.29 61.3714 40.2157C63.0852 40.2958 64.799 40.3842 66.5227 40.4842C66.7305 40.1173 66.9383 39.7487 67.1461 39.3718C66.413 38.2593 65.68 37.1452 64.9669 36.0327C64.2538 34.9202 63.5507 33.8061 62.8575 32.6936C63.6205 32.7337 64.3834 32.7837 65.1464 32.8221C65.424 33.0806 65.7016 33.3291 65.9892 33.5876L65.9875 33.5893Z" fill="url(#paint1_linear_4103_3068)"/>
<path d="M73.3718 33.2226L73.0743 31.7916C71.3306 31.6431 69.5869 31.493 67.8349 31.3646C67.8548 31.3846 67.8748 31.3946 67.8947 31.4146L67.9945 31.5047L68.0144 31.6248C68.302 33.3243 68.5896 35.0339 68.8854 36.7335C70.3416 36.8535 71.7977 36.972 73.2439 37.1204C73.2239 37.0303 73.2139 36.9519 73.194 36.8719C72.303 36.7918 71.4104 36.7234 70.5194 36.6534L70.2418 36.6234L70.192 36.3548C69.9842 35.3208 69.8063 34.2767 69.6069 33.2443L69.5171 32.7673L69.9925 32.8073C71.0231 32.8974 72.0636 32.9858 73.1026 33.0758L73.2222 33.0858L73.312 33.1659L73.3718 33.2259V33.2226ZM64.793 36.4332C64.7531 36.3632 64.7032 36.2948 64.665 36.2348C63.9519 35.1223 63.2488 34.0082 62.5556 32.8857L62.1899 32.2886L62.8831 32.3286C63.646 32.3686 64.409 32.4187 65.182 32.4671L65.3016 32.4771L65.4014 32.5571C65.4213 32.5871 65.4512 32.6072 65.4812 32.6272C65.4014 32.1502 65.3233 31.6631 65.2435 31.1761C63.7973 31.0861 62.3512 31.0077 60.905 30.9276C60.777 31.1661 60.6474 31.4146 60.5194 31.6631C61.1427 32.7172 61.7877 33.7697 62.4409 34.8037C62.7584 35.3208 63.0742 35.8278 63.4017 36.3448L64.798 36.4349L64.793 36.4332ZM58.5912 36.0746C58.3136 35.8261 58.046 35.5876 57.7684 35.3491L57.4908 35.0906L57.7484 34.8221C58.036 34.5135 58.3335 34.2066 58.6194 33.8981L58.262 30.7975C56.658 30.7375 55.0522 30.6774 53.4582 30.6291L53.528 30.6991L53.6377 30.7992L53.6476 30.9376C53.7673 32.3086 53.8754 33.6913 53.9851 35.0723L54.0449 35.8778C54.906 35.9079 55.7687 35.9379 56.6297 35.9779L57.4027 35.1723L57.4924 36.0179L58.5912 36.078V36.0746ZM57.1151 32.367C57.165 32.7739 57.2048 33.1726 57.2431 33.5795L57.263 33.748L57.1433 33.8681C56.7378 34.275 56.3405 34.6937 55.9449 35.1206L55.3997 35.6977L55.3199 34.9021C55.2401 34.0665 55.1619 33.2326 55.0921 32.397L55.0522 31.98L55.4578 32.0001C55.8933 32.0101 56.3288 32.0301 56.766 32.0501L57.0835 32.0601L57.1134 32.3686L57.1151 32.367ZM48.2287 35.696L48.1988 35.0105C48.1589 34.0765 48.1091 33.1425 48.0708 32.2069L48.0509 31.8199H48.4365C48.872 31.8299 49.2976 31.8399 49.7347 31.8399L50.0722 31.8499L50.0921 32.1885C50.152 33.1225 50.2018 34.0565 50.25 35.0005C50.27 35.2491 50.2799 35.4976 50.2899 35.7461C50.7553 35.7561 51.2108 35.7761 51.6762 35.7861L51.6264 35.0906C51.5167 33.5795 51.4086 32.0684 51.2989 30.569C49.763 30.539 48.2188 30.509 46.6828 30.489C46.7327 31.97 46.7925 33.4611 46.8408 34.9522L46.8707 35.6677C47.3261 35.6777 47.7716 35.6877 48.2271 35.6977L48.2287 35.696ZM43.0974 30.4473C43.1074 31.2528 43.1173 32.0467 43.1273 32.8523V33.0008L43.0176 33.1109C42.5921 33.5478 42.1466 33.9748 41.7194 34.4135L41.096 35.0289V34.1549C41.0861 32.9224 41.0861 31.6798 41.0861 30.4473H39.5701L39.6599 30.5373L39.7696 30.6474V30.7959C39.7596 32.1768 39.7496 33.5595 39.7297 34.9405V35.616H41.879C42.0967 35.4075 42.3145 35.189 42.5422 34.9705L43.1473 34.3734L43.1572 35.626C43.6227 35.626 44.0781 35.636 44.5336 35.636L44.5136 34.9605C44.4737 33.5795 44.4438 32.1969 44.4039 30.8159V30.6674L44.5036 30.5573C44.5435 30.5273 44.5735 30.4973 44.6034 30.4573C44.098 30.4573 43.6027 30.4573 43.0974 30.4473ZM34.984 35.676L36.1725 35.646C36.1425 35.4776 36.1126 35.2974 36.0827 35.129C35.845 33.6579 35.6073 32.1969 35.3696 30.7358L35.3397 30.5473L35.4195 30.4773C35.0721 30.4773 34.7263 30.4873 34.3889 30.4873L34.6266 32.5938C34.7463 33.6179 34.8643 34.642 34.984 35.6744V35.676ZM34.3307 30.4873C33.9733 30.4973 33.6276 30.4973 33.2702 30.5073L33.3699 30.5974L33.3201 30.8059L32.2213 35.219C32.1814 35.3875 32.1415 35.5676 32.0933 35.7361L33.2818 35.7061C33.4896 34.662 33.6974 33.6095 33.9151 32.5655L34.3307 30.4873ZM28.5361 35.8645L28.5461 35.7161C28.6359 34.5536 28.724 33.3994 28.8037 32.2469L28.8237 31.9083H29.1611C29.3988 31.8983 29.6365 31.8883 29.8842 31.8883L30.0421 31.8783L30.1518 31.9984L30.2615 32.1085C30.2914 31.5914 30.3214 31.0744 30.3613 30.5573C28.975 30.5974 27.587 30.6374 26.2007 30.6858C26.1508 31.1728 26.1009 31.6698 26.0627 32.1668C26.0826 32.1368 26.1126 32.1068 26.1425 32.0868L26.2422 31.9867H26.3802C26.6179 31.9767 26.8656 31.9667 27.1033 31.9567L27.5188 31.9467L27.4789 32.3536C27.3792 33.5161 27.2711 34.6703 27.1714 35.8328L27.1614 35.9229C27.6169 35.9029 28.0823 35.8828 28.5378 35.8628L28.5361 35.8645ZM19.7994 36.3815C20.2648 36.3515 20.7202 36.3115 21.1757 36.2815L21.2056 36.0229L21.5231 36.0029C21.9287 35.9929 22.3359 35.9729 22.7415 35.9529C22.7914 35.5359 22.8313 35.1173 22.8795 34.6903C22.5221 34.7103 22.1564 34.7203 21.799 34.7404L21.3735 34.7604L21.4234 34.3334C21.4932 33.718 21.5713 33.1008 21.6411 32.4854L21.681 32.1768L21.9885 32.1568C22.5537 32.1368 23.1172 32.1168 23.6923 32.0868L23.8602 32.0768L23.9699 32.2052C24.0098 32.2352 24.0397 32.2752 24.0697 32.3053C24.1295 31.7882 24.1794 31.2712 24.2276 30.7542C22.9194 30.8142 21.6029 30.8742 20.2947 30.9426C20.3246 30.9726 20.3546 31.0027 20.3845 31.0427L20.5042 31.1628L20.4842 31.3412C20.2964 32.7222 20.1085 34.1049 19.929 35.4759C19.8791 35.7844 19.8393 36.083 19.801 36.3799L19.7994 36.3815ZM15.4609 36.7685C15.9263 36.7184 16.3918 36.6784 16.8572 36.63C17.1348 34.7921 17.4024 32.9424 17.67 31.0944C17.4622 31.1044 17.2545 31.1144 17.0467 31.1344C16.1856 31.87 15.3229 32.6155 14.4619 33.361L13.6989 34.0065L13.8668 33.0225C13.9566 32.4554 14.0546 31.89 14.1444 31.3329C13.9366 31.3429 13.7288 31.3629 13.5211 31.3829C12.66 32.1285 11.7973 32.884 10.9263 33.6296L10.1334 34.3251L10.3312 33.291C10.4409 32.7239 10.549 32.1685 10.6487 31.6114C10.1135 31.6615 9.58819 31.7015 9.05461 31.7499C9.08453 31.7899 9.12442 31.8199 9.15434 31.8599L9.27403 31.9984L9.23413 32.1768C8.85846 33.9965 8.48114 35.8245 8.10547 37.6441C8.58087 37.5741 9.06625 37.5157 9.54165 37.4556C9.65136 36.8585 9.76938 36.2631 9.87908 35.676L9.909 35.5476L10.0087 35.4675C10.5739 34.9905 11.1374 34.5235 11.7026 34.0565L12.4655 33.4211L12.2877 34.4051C12.1198 35.3291 11.9502 36.2531 11.7824 37.1688C12.2478 37.1087 12.7232 37.0587 13.1886 37.0103C13.2784 36.4733 13.3665 35.9462 13.4562 35.4108L13.4762 35.2724L13.5859 35.1823C14.161 34.7253 14.7345 34.2784 15.2997 33.8114L16.0427 33.2143L15.8947 34.1483C15.7568 35.0222 15.6172 35.8979 15.4692 36.7718L15.4609 36.7685Z" fill="white"/>
<path d="M28.8034 45.9952C28.6754 47.9533 27.6448 49.3543 25.306 49.4144C24.7907 49.4244 24.2455 49.3943 23.7701 49.2559C23.3446 49.1358 22.9673 48.9373 22.6797 48.6405C22.4021 48.3419 22.2143 47.985 22.1345 47.5864C22.0447 47.1394 22.0347 46.6624 22.0846 46.1954C22.1943 45.1613 22.3123 44.1172 22.432 43.0848C21.8369 42.7963 21.2335 42.5077 20.6484 42.2208C22.0048 42.1608 23.3729 42.1108 24.7392 42.0624C24.6013 43.4134 24.4616 44.766 24.3436 46.117C24.3237 46.2754 24.2937 46.634 24.3336 46.7825C24.3636 46.9109 24.4334 47.061 24.4915 47.1694C24.5614 47.2978 24.6694 47.3779 24.809 47.4379C24.9869 47.508 25.1664 47.538 25.3742 47.528C25.5421 47.528 25.7698 47.498 25.9294 47.4079C26.0674 47.3178 26.1771 47.2294 26.2668 47.0994C26.3466 46.9993 26.4148 46.8809 26.4547 46.7608C26.5145 46.5523 26.5344 46.2637 26.5444 46.0453C26.6641 44.6943 26.7721 43.3416 26.8819 42.0007C27.6249 41.9707 28.3579 41.9607 29.101 41.9406C29.0012 43.2916 28.9131 44.6443 28.8034 45.9952ZM34.0727 46.0853C34.0229 47.1394 33.983 48.1818 33.9447 49.2259C33.5691 49.2259 33.1818 49.2359 32.8061 49.2459C32.4304 49.2459 32.0531 49.2459 31.6774 49.2559C31.7373 48.0334 31.7971 46.8008 31.8653 45.5783C31.9351 44.3457 31.9933 43.1232 32.0631 41.8906C32.6282 41.8806 33.2017 41.8706 33.7669 41.8706C34.5598 42.9147 35.361 43.9671 36.1838 45.0112C36.2137 43.9571 36.2436 42.8947 36.2735 41.8406C36.4414 41.8406 36.611 41.8306 36.7888 41.8306C37.344 41.8306 37.8876 41.8306 38.4428 41.8206C38.4228 43.0531 38.4029 44.2857 38.3929 45.5082C38.373 46.7408 38.353 47.9633 38.3331 49.1959C37.738 49.1959 37.1446 49.1959 36.5594 49.2059C35.7067 48.1618 34.8756 47.1277 34.0727 46.0853ZM43.7403 49.1959H43.1752V49.1858H41.4016C41.3916 47.9533 41.3916 46.7308 41.3816 45.4982C41.3816 44.2757 41.3716 43.0431 41.3716 41.8105C42.1147 41.8105 42.8577 41.8105 43.6107 41.8206C43.6306 43.0431 43.6506 44.2757 43.6705 45.5082C43.6905 46.7408 43.7104 47.9633 43.7403 49.1959ZM50.8531 43.9187C50.9029 44.8127 50.9628 45.7083 51.021 46.6023C51.0708 47.4863 51.1207 48.3919 51.1789 49.2759C50.396 49.2659 49.613 49.2559 48.8418 49.2459L48.7221 46.5623C48.6822 45.6683 48.6323 44.7727 48.5941 43.8787C48.1686 43.8687 47.733 43.8687 47.2959 43.8587C46.7806 43.1832 46.2553 42.5077 45.75 41.8306C48.2866 41.8606 50.8215 41.9006 53.3681 41.959C52.9724 42.6145 52.5752 43.2816 52.1796 43.9371C51.7341 43.9271 51.2986 43.9271 50.8514 43.9171L50.8531 43.9187ZM60.4625 46.2738L60.8482 49.5545C60.0952 49.5244 59.3521 49.4944 58.5991 49.4744C58.4894 48.3719 58.3714 47.2778 58.2617 46.1837C57.153 44.7827 56.0526 43.39 54.9738 41.999C55.8647 42.029 56.7673 42.0591 57.6583 42.0891C58.1537 42.7746 58.659 43.4701 59.1643 44.1672C59.4918 43.5018 59.8176 42.8446 60.145 42.1791C61.5712 42.2392 63.0274 42.3076 64.4735 42.3876C63.7604 42.6161 63.0573 42.8446 62.3342 43.0831C61.7208 44.1472 61.0859 45.1996 60.4625 46.2738Z" fill="url(#paint2_linear_4103_3068)"/>
<path d="M2.03906 46.2726L4.52578 49.8702C4.52578 49.8702 13.8975 48.9162 20.7127 49.0246C20.8507 47.792 20.9404 46.6195 21.0784 45.397L21.1183 45.01L20.3853 45L16.9677 45.1885C15.967 45.2485 14.9763 45.2986 13.9756 45.3669L12.8171 45.437L12.3915 45.467L10.1625 45.6154L9.49922 45.6655L8.61823 45.7355C7.61756 45.8156 6.61688 45.894 5.60624 45.984L2.04072 46.2726H2.03906Z" fill="url(#paint3_linear_4103_3068)"/>
<path d="M77.8908 49.931L80.3775 46.3334L77.6232 46.1049V46.1149L76.0873 45.9865C73.7103 45.788 71.3416 45.6096 68.9745 45.4494L65.7448 45.2209L62.7428 45.2109L62.643 45.3794L61.7122 46.9605L61.6523 47.0606L61.6723 47.1807C61.7421 47.8061 61.8103 48.4433 61.89 49.0787C68.6853 48.9887 77.8875 49.9343 77.8875 49.9343L77.8908 49.931Z" fill="url(#paint4_linear_4103_3068)"/>
<path d="M62.1559 51.2914L60.8095 51.2414L58.5605 51.1613L57.2623 51.1113L52.7942 51.0012L51.1602 50.9712L48.833 50.9311L47.4268 50.9111L45.2675 50.8811H42.0178V50.8711H39.8287L38.3426 50.8811L36.559 50.8911L35.8459 50.9011H35.3905L33.9543 50.9111L32.8256 50.9311C32.45 50.9311 32.0726 50.9411 31.697 50.9512L30.0829 50.9812L25.3771 51.1013V51.1113H25.3272L24.029 51.1613L21.79 51.2414L20.4336 51.2914L22.9203 54.889C34.9949 54.3719 47.5963 54.3719 59.6709 54.889L62.1576 51.2914H62.1559Z" fill="url(#paint5_linear_4103_3068)"/>
<path d="M56.3994 12.1693C54.8336 11.5138 53.7847 11.0752 52.2189 10.4297C52.1989 12.8648 54.4978 13.8088 56.3994 12.1693Z" fill="white"/>
<defs>
<linearGradient id="paint0_linear_4103_3068" x1="1.43973" y1="26.2272" x2="93.3791" y2="32.6454" gradientUnits="userSpaceOnUse">
<stop stop-color="#8A47FF"/>
<stop offset="0.48" stop-color="#C23DFF"/>
<stop offset="1" stop-color="#5CCBFF"/>
</linearGradient>
<linearGradient id="paint1_linear_4103_3068" x1="41.1232" y1="41.1421" x2="41.046" y2="30.4969" gradientUnits="userSpaceOnUse">
<stop stop-color="white"/>
<stop offset="1" stop-color="#CCCCCC"/>
</linearGradient>
<linearGradient id="paint2_linear_4103_3068" x1="7.99623" y1="44.2939" x2="82.0307" y2="48.4517" gradientUnits="userSpaceOnUse">
<stop stop-color="#A16BFF"/>
<stop offset="0.48" stop-color="#C23DFF"/>
<stop offset="1" stop-color="#5CCBFF"/>
</linearGradient>
<linearGradient id="paint3_linear_4103_3068" x1="7.863" y1="53.9926" x2="15.1802" y2="42.2691" gradientUnits="userSpaceOnUse">
<stop stop-color="#151859"/>
<stop offset="1" stop-color="#4A2466"/>
</linearGradient>
<linearGradient id="paint4_linear_4103_3068" x1="67.4831" y1="53.759" x2="74.5459" y2="42.3162" gradientUnits="userSpaceOnUse">
<stop stop-color="#151859"/>
<stop offset="1" stop-color="#4A2466"/>
</linearGradient>
<linearGradient id="paint5_linear_4103_3068" x1="39.71" y1="59.9338" x2="42.7069" y2="47.2042" gradientUnits="userSpaceOnUse">
<stop stop-color="#151859"/>
<stop offset="1" stop-color="#4A2466"/>
</linearGradient>
</defs>
</svg>
