<svg width="144" height="20" viewBox="0 0 144 20" fill="none" xmlns="http://www.w3.org/2000/svg">
<path d="M35.0395 19.965C32.7221 19.965 30.8476 19.4279 29.4162 18.3538C28.2377 17.4526 27.4425 16.2457 27.0308 14.7333C26.8874 14.2063 27.2614 13.6977 27.7976 13.6145L30.6532 13.1711C31.1648 13.0916 31.634 13.4364 31.859 13.906C32.0901 14.3883 32.4175 14.7909 32.8413 15.1138C33.5116 15.6159 34.3579 15.8669 35.3804 15.8669C36.221 15.8669 36.8685 15.7034 37.323 15.3765C37.7774 15.0379 38.0046 14.5709 38.0046 13.9755C38.0046 13.6019 37.9137 13.3041 37.7319 13.0823C37.5502 12.8488 37.1412 12.6211 36.505 12.3993C35.8802 12.1775 34.9032 11.8856 33.5741 11.5236C32.0745 11.1267 30.876 10.683 29.9786 10.1926C29.0811 9.70228 28.4336 9.11851 28.036 8.44133C27.6384 7.75248 27.4396 6.92353 27.4396 5.95447C27.4396 4.74022 27.7406 3.68943 28.3427 2.8021C28.9448 1.90309 29.7911 1.21424 30.8817 0.735551C31.9837 0.245184 33.2787 0 34.7669 0C36.2097 0 37.4877 0.22767 38.601 0.683011C39.7143 1.13835 40.6117 1.78634 41.2933 2.62697C41.7924 3.23236 42.153 3.91646 42.3751 4.67929C42.523 5.18707 42.1637 5.67956 41.6469 5.77509L38.8663 6.28908C38.3079 6.39229 37.8034 5.97468 37.5202 5.47914C37.376 5.22672 37.1852 5.00571 36.9481 4.81611C36.4369 4.40747 35.7439 4.16813 34.8691 4.09807C34.0171 4.0397 33.3298 4.15645 32.8073 4.44834C32.2961 4.74022 32.0405 5.16054 32.0405 5.70928C32.0405 6.03619 32.1484 6.31057 32.3642 6.5324C32.5914 6.75423 33.0515 6.9819 33.7445 7.21541C34.4488 7.44892 35.5167 7.75248 36.9481 8.12609C38.3454 8.49971 39.4644 8.93754 40.305 9.43958C41.157 9.92995 41.7762 10.5254 42.1624 11.2259C42.5486 11.9148 42.7418 12.7496 42.7418 13.7303C42.7418 15.6684 42.0602 17.1921 40.6969 18.3012C39.3337 19.4104 37.4479 19.965 35.0395 19.965Z" fill="white"/>
<path d="M50.1187 19.965C48.8009 19.965 47.6819 19.7081 46.7618 19.1944C45.853 18.669 45.16 17.9743 44.6829 17.1103C44.2171 16.2347 43.9842 15.2715 43.9842 14.2207C43.9842 13.345 44.1148 12.5452 44.3761 11.8214C44.6374 11.0975 45.0577 10.4612 45.6371 9.91243C46.2278 9.35201 47.0174 8.885 48.0057 8.51138C48.6873 8.25452 49.4996 8.02685 50.4425 7.82837C51.3854 7.62989 52.4532 7.44308 53.6461 7.26795C53.9795 7.21573 54.4992 7.13461 54.9531 7.06382C55.4701 6.98318 55.8362 6.50197 55.6533 6.00831C55.5399 5.70221 55.3725 5.37663 55.1286 5.13135C54.606 4.60595 53.7313 4.34326 52.5044 4.34326C51.8227 4.34326 51.1127 4.51255 50.3743 4.85114C49.9141 5.06215 49.54 5.37521 49.2518 5.79029C48.9456 6.23146 48.4164 6.52228 47.9079 6.35657L45.5448 5.58651C45.0374 5.42115 44.7476 4.87387 44.9617 4.38192C45.4652 3.2252 46.23 2.25493 47.2559 1.4711C48.5396 0.490368 50.2891 0 52.5044 0C54.1289 0 55.5716 0.256859 56.8326 0.770576C58.0936 1.2843 59.0478 2.17163 59.6954 3.43257C60.0589 4.1331 60.2747 4.83363 60.3429 5.53415C60.4111 6.23468 60.4451 7.01693 60.4451 7.88091V18.4519C60.4451 18.9974 60.0061 19.4396 59.4645 19.4396H57.0046C56.6649 19.4396 56.3895 19.1623 56.3895 18.8202C56.3895 18.2418 55.6297 17.9421 55.1926 18.3172C54.848 18.613 54.4562 18.9069 54.055 19.1243C53.0212 19.6848 51.7091 19.965 50.1187 19.965ZM51.1071 16.2172C51.9591 16.2172 52.6748 16.0654 53.2541 15.7618C53.8449 15.4466 54.3106 15.0905 54.6514 14.6935C55.0036 14.2966 55.2422 13.9638 55.3671 13.6953C55.6057 13.1816 55.742 12.5861 55.7761 11.9089C55.8143 11.3299 55.2959 10.8759 54.7288 10.979C54.3997 11.0389 54.0726 11.099 53.8676 11.1384C53.0156 11.2901 52.3283 11.4302 51.8057 11.5587C51.2831 11.6871 50.823 11.8272 50.4254 11.979C49.971 12.1658 49.6018 12.3701 49.3178 12.5919C49.0452 12.8021 48.8407 13.0356 48.7044 13.2925C48.5794 13.5493 48.5169 13.8354 48.5169 14.1506C48.5169 14.5826 48.6192 14.9562 48.8236 15.2715C49.0395 15.575 49.3405 15.8085 49.7268 15.972C50.113 16.1354 50.5731 16.2172 51.1071 16.2172Z" fill="white"/>
<path d="M81.263 19.4396C80.7207 19.4396 80.2814 18.9963 80.2824 18.4501L80.3129 1.47624C80.3139 0.931475 80.7527 0.490376 81.2935 0.490376H84.0372C84.5788 0.490376 85.0178 0.932564 85.0178 1.47803V6.46082C85.0178 7.42997 86.2593 7.81938 86.8057 7.0216L90.9622 0.952275C91.1453 0.684989 91.4471 0.525394 91.7695 0.525394H96.9801L90.725 9.42665C90.4898 9.76129 90.4844 10.2075 90.7113 10.5478L95.6141 17.9013C96.0516 18.5575 95.5847 19.4396 94.8 19.4396H91.1541C90.8143 19.4396 90.4987 19.2624 90.32 18.9713L86.8326 13.2894C86.3132 12.4432 85.0178 12.8139 85.0178 13.8088V18.4519C85.0178 18.9974 84.5788 19.4396 84.0372 19.4396H81.263Z" fill="white"/>
<path d="M103.362 20C101.919 20 100.744 19.749 99.8348 19.2469C98.926 18.7449 98.216 18.1086 97.7048 17.338C97.2049 16.5674 96.8471 15.7677 96.6313 14.9387C96.4154 14.0981 96.2848 13.3333 96.2393 12.6445C96.1939 11.9556 96.1712 11.4536 96.1712 11.1384V0.525393H99.8937C100.435 0.525393 100.874 0.967581 100.874 1.51305V9.45709C100.874 9.88908 100.897 10.4437 100.942 11.1208C100.988 11.7863 101.13 12.4577 101.368 13.1349C101.607 13.812 101.993 14.3783 102.527 14.8336C103.072 15.289 103.839 15.5166 104.828 15.5166C105.225 15.5166 105.651 15.4524 106.106 15.324C106.56 15.1956 106.986 14.9504 107.384 14.5884C107.781 14.2148 108.105 13.6719 108.355 12.9597C108.616 12.2358 108.747 10.0564 108.747 8.88889C111.534 10.2477 111.929 12.5012 110.519 15.6217C110.206 16.3147 109.808 16.9372 109.326 17.4892C108.899 17.9788 108.404 18.4129 107.844 18.7916C106.662 19.5972 105.168 20 103.362 20ZM110.307 19.4396C109.765 19.4396 109.326 18.9974 109.326 18.4519V17.4892L108.747 8.88889V1.51305C108.747 0.967582 109.186 0.525393 109.728 0.525393H112.435C112.977 0.525393 113.416 0.967581 113.416 1.51305V18.4519C113.416 18.9974 112.977 19.4396 112.435 19.4396H110.307Z" fill="white"/>
<path d="M116.552 19.4396C116.011 19.4396 115.572 18.9974 115.572 18.4519V1.51305C115.572 0.967581 116.011 0.525393 116.552 0.525393H118.681C119.222 0.525393 119.661 0.967581 119.661 1.51305V4.51879C119.661 4.72054 119.406 4.8061 119.286 4.64466C119.244 4.58776 119.233 4.51304 119.258 4.44668C119.492 3.83464 119.797 3.27478 120.172 2.76708C120.57 2.23001 121.058 1.78634 121.638 1.43608C122.081 1.15587 122.564 0.939871 123.086 0.788091C123.609 0.624635 124.148 0.525394 124.705 0.490368C125.262 0.443665 125.818 0.45534 126.375 0.525393V4.97373C125.864 4.81027 125.267 4.75773 124.586 4.81611C123.916 4.86281 123.308 5.02043 122.763 5.28897C122.217 5.54583 121.757 5.89025 121.382 6.32224C121.007 6.74256 120.723 7.2446 120.53 7.82837C120.337 8.40047 120.241 9.04845 120.241 9.77233V18.4519C120.241 18.9974 119.802 19.4396 119.26 19.4396H116.552Z" fill="white"/>
<path d="M133.468 20C132.025 20 130.849 19.749 129.941 19.2469C129.032 18.7449 128.322 18.1086 127.811 17.338C127.311 16.5674 126.953 15.7677 126.737 14.9387C126.521 14.0981 126.391 13.3333 126.345 12.6445C126.3 11.9556 126.277 11.4536 126.277 11.1384V0.525393H129.999C130.541 0.525393 130.98 0.967581 130.98 1.51305V9.45709C130.98 9.88908 131.003 10.4437 131.048 11.1208C131.094 11.7863 131.236 12.4577 131.474 13.1349C131.713 13.812 132.099 14.3783 132.633 14.8336C133.178 15.289 133.945 15.5166 134.933 15.5166C135.331 15.5166 135.757 15.4524 136.211 15.324C136.666 15.1956 137.092 14.9504 137.489 14.5884C137.887 14.2148 138.211 13.6719 138.461 12.9597C138.593 12.5943 138.691 12.1723 138.757 11.6938C138.855 10.972 139.609 10.4915 140.261 10.809L140.958 11.1488C141.296 11.3138 141.515 11.6594 141.494 12.0375C141.423 13.3014 141.133 14.4962 140.625 15.6217C140.034 16.9294 139.142 17.986 137.95 18.7916C136.768 19.5972 135.274 20 133.468 20ZM140.413 19.4396C139.871 19.4396 139.432 18.9974 139.432 18.4519V13.4616C139.432 13.3005 139.302 13.1699 139.142 13.1699C138.982 13.1699 138.853 13.0393 138.853 12.8781V1.51305C138.853 0.967581 139.292 0.525393 139.833 0.525393H142.541C143.083 0.525393 143.522 0.967581 143.522 1.51305V18.4519C143.522 18.9974 143.083 19.4396 142.541 19.4396H140.413Z" fill="white"/>
<path d="M67.7732 19.965C66.4554 19.965 65.3364 19.7081 64.4162 19.1944C63.5074 18.669 62.8145 17.9743 62.3373 17.1103C61.8716 16.2347 61.6387 15.2715 61.6387 14.2207C61.6387 13.345 61.7693 12.5452 62.0306 11.8214C62.2919 11.0975 62.7122 10.4612 63.2916 9.91243C63.8823 9.35201 64.6719 8.885 65.6602 8.51138C66.3418 8.25452 67.1541 8.02685 68.097 7.82837C69.0399 7.62989 70.1077 7.44308 71.3005 7.26795C71.634 7.21573 72.1537 7.13461 72.6076 7.06382C73.1246 6.98318 73.4907 6.50197 73.3078 6.00831C73.1944 5.70221 73.027 5.37663 72.783 5.13135C72.2605 4.60595 71.3857 4.34326 70.1588 4.34326C69.4772 4.34326 68.7672 4.51255 68.0288 4.85114C67.5686 5.06215 67.1944 5.37521 66.9063 5.79029C66.6001 6.23146 66.0709 6.52228 65.5624 6.35657L63.1993 5.58651C62.6918 5.42115 62.4021 4.87387 62.6162 4.38192C63.1197 3.2252 63.8844 2.25493 64.9104 1.4711C66.1941 0.490368 67.9436 0 70.1588 0C71.7833 0 73.2261 0.256859 74.4871 0.770576C75.7481 1.2843 76.7023 2.17163 77.3498 3.43257C77.7134 4.1331 77.9292 4.83363 77.9974 5.53415C78.0655 6.23468 78.0996 7.01693 78.0996 7.88091V18.4519C78.0996 18.9974 77.6606 19.4396 77.119 19.4396H74.659C74.3194 19.4396 74.044 19.1623 74.044 18.8202C74.044 18.2418 73.2841 17.9421 72.8471 18.3172C72.5025 18.613 72.1106 18.9069 71.7095 19.1243C70.6757 19.6848 69.3636 19.965 67.7732 19.965ZM68.7615 16.2172C69.6135 16.2172 70.3292 16.0654 70.9086 15.7618C71.4993 15.4466 71.9651 15.0905 72.3059 14.6935C72.6581 14.2966 72.8966 13.9638 73.0216 13.6953C73.2602 13.1816 73.3965 12.5861 73.4306 11.9089C73.4688 11.3299 72.9503 10.8759 72.3833 10.979C72.0542 11.0389 71.7271 11.099 71.5221 11.1384C70.67 11.2901 69.9828 11.4302 69.4602 11.5587C68.9376 11.6871 68.4775 11.8272 68.0799 11.979C67.6255 12.1658 67.2563 12.3701 66.9723 12.5919C66.6996 12.8021 66.4952 13.0356 66.3588 13.2925C66.2339 13.5493 66.1714 13.8354 66.1714 14.1506C66.1714 14.5826 66.2736 14.9562 66.4781 15.2715C66.694 15.575 66.995 15.8085 67.3813 15.972C67.7675 16.1354 68.2276 16.2172 68.7615 16.2172Z" fill="white"/>
<path fill-rule="evenodd" clip-rule="evenodd" d="M20 10C20 15.5228 15.5228 20 10 20C4.47715 20 -6.78525e-07 15.5228 0 10C0 4.47715 4.47715 -6.78525e-07 10 0C15.5228 0 20 4.47715 20 10ZM10 18.1667C5.48967 18.1667 1.83333 14.5103 1.83333 10C1.83333 5.48967 5.48967 1.83333 10 1.83333C10.5312 1.83333 11.0506 1.88406 11.5536 1.98093C11.78 2.02452 11.7315 2.35631 11.5025 2.38259C7.73362 2.81504 4.66667 6.07754 4.66667 10C4.66667 13.9224 7.73361 17.185 11.5025 17.6174C11.7315 17.6437 11.78 17.9755 11.5536 18.0191C11.0506 18.1159 10.5312 18.1667 10 18.1667ZM15.8848 6.84854C16.0551 6.91442 16.027 7.15539 15.8582 7.22494C14.7677 7.67413 14 8.74742 14 10C14 11.2526 14.7677 12.3259 15.8582 12.7751C16.027 12.8446 16.0551 13.0856 15.8848 13.1515C15.5069 13.2976 15.0961 13.3778 14.6667 13.3778C12.8012 13.3778 11.2889 11.8655 11.2889 10C11.2889 8.13451 12.8012 6.62222 14.6667 6.62222C15.0961 6.62222 15.5069 6.70238 15.8848 6.84854ZM9.33333 10C9.33333 7.40091 11.1925 5.23605 13.6535 4.76278C13.866 4.72191 13.9073 4.41958 13.6969 4.36882C13.2596 4.26331 12.803 4.20741 12.3333 4.20741C9.13417 4.20741 6.54074 6.80084 6.54074 10C6.54074 13.1992 9.13417 15.7926 12.3333 15.7926C12.803 15.7926 13.2596 15.7367 13.6969 15.6312C13.9073 15.5804 13.866 15.2781 13.6535 15.2372C11.1925 14.764 9.33333 12.5991 9.33333 10ZM17 10.8C16.5582 10.8 16.2 10.4418 16.2 10C16.2 9.55817 16.5582 9.2 17 9.2C17.4418 9.2 17.8 9.55817 17.8 10C17.8 10.4418 17.4418 10.8 17 10.8Z" fill="white"/>
</svg>
